<?xml version="1.0" encoding="utf-8"?>
<!-- Generator: Adobe Illustrator 24.0.1, SVG Export Plug-In . SVG Version: 6.00 Build 0)  -->
<svg version="1.1" id="Слой_1" xmlns="http://www.w3.org/2000/svg" xmlns:xlink="http://www.w3.org/1999/xlink" x="0px" y="0px"
	 viewBox="0 0 397.66 383.12" style="enable-background:new 0 0 397.66 383.12;" xml:space="preserve">
<style type="text/css">
	.st0{fill-rule:evenodd;clip-rule:evenodd;fill:#D8608E;}
	.st1{display:none;}
	.st2{display:inline;fill-rule:evenodd;clip-rule:evenodd;fill:#941C4D;}
</style>
<g id="Слой_1_1_">
	<path class="st0" d="M145.84,208.57c-59.33-86.08-47.67-52.51-112.05-51.65c3.66-106.36,103.3-190.45,175.03-68.83
		c31.49-6.49,101.19-77.34,151.15-39.72c-108.6,157.73,73.04,97.93-27.88,167.61c-143.5,3.17-35.18,106.5-93.85,139.01
		C224.11,305.64,172.39,259.75,145.84,208.57z"/>
</g>
<g id="Слой_2_1_" class="st1">
	<path class="st2" d="M145.84,208.57c-59.33-86.08-47.67-52.51-112.05-51.65c3.66-106.36,103.3-190.45,175.03-68.83
		c31.49-6.49,101.19-77.34,151.15-39.72c-108.6,157.73,73.04,97.93-27.88,167.61c-143.5,3.17-35.18,106.5-93.85,139.01
		C224.11,305.64,172.39,259.75,145.84,208.57z"/>
</g>
</svg>
