<?xml version="1.0" encoding="utf-8"?>
<!-- Generator: Adobe Illustrator 24.0.1, SVG Export Plug-In . SVG Version: 6.00 Build 0)  -->
<svg version="1.1" id="Layer_1" xmlns="http://www.w3.org/2000/svg" xmlns:xlink="http://www.w3.org/1999/xlink" x="0px" y="0px"
	 viewBox="0 0 579.78 579.78" style="enable-background:new 0 0 579.78 579.78;" xml:space="preserve">
<style type="text/css">
	.st0{fill:#D8608E;}
</style>
<path class="st0" d="M470.87,108.91c-100.02-100.02-261.92-100.04-361.96,0c-100.02,100.02-100.04,261.92,0,361.96
	c100.02,100.02,261.92,100.04,361.96,0C570.89,370.85,570.9,208.95,470.87,108.91z M460.17,434.38
	c-11.96-10.69-24.75-20.16-38.23-28.31c8.91-30.78,14.19-64.66,15.44-99.87h75.25C509.22,353.66,490.99,398.19,460.17,434.38
	L460.17,434.38z M67.15,306.2h75.25c1.25,35.21,6.53,69.09,15.44,99.87c-13.48,8.16-26.27,17.62-38.23,28.31
	C88.79,398.19,70.56,353.66,67.15,306.2z M119.61,145.39c11.96,10.69,24.75,20.16,38.23,28.31c-8.91,30.78-14.19,64.66-15.44,99.87
	H67.15C70.56,226.12,88.79,181.59,119.61,145.39z M273.58,177.08c-26.6-1.9-52.25-8.45-76.03-19.26
	c13.83-35.61,39.32-78.32,76.03-88.9V177.08z M273.58,209.76v63.82h-98.54c1.13-29.79,5.35-58.39,12.37-84.56
	C214.43,200.83,243.49,207.88,273.58,209.76z M273.58,306.2v63.82c-30.09,1.88-59.15,8.93-86.18,20.74
	c-7.02-26.17-11.24-54.78-12.37-84.56H273.58z M273.58,402.7v108.17c-36.7-10.58-62.2-53.29-76.03-88.9
	C221.33,411.16,246.98,404.6,273.58,402.7z M306.2,402.7c26.6,1.9,52.25,8.45,76.03,19.26c-13.83,35.61-39.32,78.32-76.03,88.9
	V402.7z M306.2,370.02V306.2h98.54c-1.13,29.79-5.35,58.39-12.37,84.56C365.35,378.95,336.29,371.9,306.2,370.02L306.2,370.02z
	 M306.2,273.58v-63.82c30.09-1.88,59.15-8.93,86.18-20.74c7.02,26.17,11.24,54.78,12.37,84.56H306.2z M306.2,177.08V68.91
	c36.7,10.58,62.2,53.29,76.03,88.9C358.45,168.62,332.8,175.18,306.2,177.08z M379.46,85.2c20.88,9.14,40.36,21.54,57.82,36.92
	c-8.31,7.33-17.08,13.97-26.24,19.91C402.91,121.9,392.52,102.33,379.46,85.2z M168.74,142.03c-9.16-5.94-17.93-12.59-26.24-19.91
	c17.46-15.38,36.94-27.78,57.82-36.92C187.26,102.33,176.87,121.9,168.74,142.03L168.74,142.03z M168.74,437.75
	c8.13,20.13,18.52,39.7,31.58,56.84c-20.88-9.14-40.36-21.54-57.82-36.92C150.81,450.33,159.58,443.69,168.74,437.75z
	 M411.04,437.75c9.16,5.94,17.93,12.59,26.24,19.91c-17.46,15.38-36.94,27.78-57.82,36.92
	C392.52,477.45,402.91,457.88,411.04,437.75L411.04,437.75z M437.38,273.58c-1.25-35.21-6.53-69.09-15.44-99.87
	c13.48-8.16,26.27-17.62,38.23-28.31c30.81,36.2,49.05,80.72,52.45,128.18H437.38z"/>
</svg>
